<svg xmlns="http://www.w3.org/2000/svg" width="1200" height="630" viewBox="0 0 1200 630" role="img" aria-labelledby="title desc">
  <title id="title">AgunkeFest and Coconut Heritage Tourism</title>
  <desc id="desc">Festival scene with stage, coconut palms, visitors, and cultural exchange.</desc>
  <defs>
    <linearGradient id="festival" x1="0" x2="1" y1="0" y2="1">
      <stop offset="0" stop-color="#064e3b"/>
      <stop offset=".55" stop-color="#047857"/>
      <stop offset="1" stop-color="#f59e0b"/>
    </linearGradient>
  </defs>
  <rect width="1200" height="630" fill="#fff7ed"/>
  <rect x="0" y="0" width="1200" height="360" fill="url(#festival)"/>
  <path d="M0 350 C160 306 285 374 445 330 C610 285 750 352 900 322 C1040 294 1128 305 1200 285 L1200 630 L0 630Z" fill="#fef3c7"/>
  <path d="M100 420 H1100 V560 H100Z" fill="#022c22"/>
  <path d="M130 390 H1070 L1015 330 H185Z" fill="#84cc16"/>
  <circle cx="210" cy="505" r="38" fill="#dc2626"/>
  <circle cx="330" cy="505" r="38" fill="#2563eb"/>
  <circle cx="450" cy="505" r="38" fill="#f59e0b"/>
  <circle cx="570" cy="505" r="38" fill="#16a34a"/>
  <circle cx="690" cy="505" r="38" fill="#7c3aed"/>
  <circle cx="810" cy="505" r="38" fill="#0891b2"/>
  <circle cx="930" cy="505" r="38" fill="#ea580c"/>
  <path d="M140 130 Q600 40 1060 130" stroke="#fef3c7" stroke-width="10" fill="none"/>
  <g fill="#fbbf24">
    <circle cx="220" cy="115" r="13"/><circle cx="320" cy="96" r="13"/><circle cx="420" cy="82" r="13"/><circle cx="520" cy="73" r="13"/><circle cx="620" cy="72" r="13"/><circle cx="720" cy="78" r="13"/><circle cx="820" cy="92" r="13"/><circle cx="920" cy="112" r="13"/>
  </g>
  <g transform="translate(865 145) scale(.72)">
    <path d="M110 315 C120 220 115 145 90 65" stroke="#7c2d12" stroke-width="20" stroke-linecap="round"/>
    <path d="M83 80 C30 38 20 12 6 -42 C63 -24 91 5 102 67Z" fill="#16a34a"/>
    <path d="M101 65 C123 4 154 -24 217 -44 C203 20 166 56 111 82Z" fill="#22c55e"/>
    <path d="M98 74 C42 93 6 128 -28 183 C40 181 87 151 115 92Z" fill="#15803d"/>
    <path d="M109 82 C166 89 216 116 263 168 C188 179 135 148 111 101Z" fill="#16a34a"/>
  </g>
  <text x="72" y="95" font-family="Poppins, Arial, sans-serif" font-size="56" font-weight="800" fill="#fff7ed">AgunkeFest</text>
  <text x="76" y="145" font-family="Inter, Arial, sans-serif" font-size="25" fill="#dcfce7">Coconut heritage tourism with local roots and global invitations</text>
  <text x="415" y="440" font-family="Poppins, Arial, sans-serif" font-size="42" font-weight="800" fill="#fef3c7">AFRICOCO CULTURE STAGE</text>
</svg>
