<svg xmlns="http://www.w3.org/2000/svg" width="1200" height="630" viewBox="0 0 1200 630" role="img" aria-labelledby="title desc">
  <title id="title">Coconut Trees and Climate Resilience</title>
  <desc id="desc">Coastal coconut landscape showing trees, communities, rainfall, sunshine, and climate resilience.</desc>
  <defs>
    <linearGradient id="bg" x1="0" x2="0" y1="0" y2="1">
      <stop offset="0" stop-color="#cffafe"/>
      <stop offset=".55" stop-color="#dcfce7"/>
      <stop offset="1" stop-color="#fef3c7"/>
    </linearGradient>
  </defs>
  <rect width="1200" height="630" fill="url(#bg)"/>
  <circle cx="990" cy="110" r="66" fill="#fbbf24"/>
  <path d="M0 430 C180 385 310 455 480 410 C650 365 780 418 930 384 C1050 356 1130 372 1200 345 L1200 630 L0 630Z" fill="#0f766e"/>
  <path d="M0 500 C230 440 405 518 600 470 C810 420 1010 500 1200 450 L1200 630 L0 630Z" fill="#022c22"/>
  <path d="M0 455 C160 410 300 480 455 444 C605 408 735 450 880 420 C1020 392 1115 406 1200 385" stroke="#67e8f9" stroke-width="18" opacity=".72" fill="none"/>
  <g transform="translate(120 150)">
    <path d="M105 350 C118 232 113 140 83 45" stroke="#854d0e" stroke-width="20" stroke-linecap="round"/>
    <path d="M82 58 C20 20 0 -28 -12 -84 C55 -62 93 -22 105 45Z" fill="#16a34a"/>
    <path d="M102 48 C132 -16 183 -55 252 -70 C232 0 180 42 111 66Z" fill="#22c55e"/>
    <path d="M100 76 C47 95 10 130 -18 185 C48 180 94 151 116 95Z" fill="#15803d"/>
    <path d="M114 82 C174 86 224 116 278 171 C203 185 142 150 120 102Z" fill="#16a34a"/>
  </g>
  <g transform="translate(670 165)">
    <path d="M100 305 C112 215 108 140 84 68" stroke="#854d0e" stroke-width="17" stroke-linecap="round"/>
    <path d="M86 70 C32 35 10 -2 -2 -56 C55 -38 87 -6 99 57Z" fill="#16a34a"/>
    <path d="M103 62 C130 7 173 -28 235 -43 C214 19 169 50 112 79Z" fill="#22c55e"/>
    <path d="M99 82 C47 104 14 135 -13 182 C46 179 90 151 113 98Z" fill="#15803d"/>
    <path d="M115 88 C172 92 216 119 261 164 C194 180 144 151 119 107Z" fill="#16a34a"/>
  </g>
  <g transform="translate(485 275)">
    <rect x="0" y="95" width="260" height="90" rx="12" fill="#fef3c7"/>
    <path d="M0 100 L130 8 L260 100Z" fill="#065f46"/>
    <rect x="102" y="128" width="56" height="57" fill="#92400e"/>
    <rect x="28" y="120" width="44" height="34" fill="#bbf7d0"/>
    <rect x="188" y="120" width="44" height="34" fill="#bbf7d0"/>
  </g>
  <g fill="#0284c7" opacity=".55">
    <path d="M340 60 C330 88 318 104 318 123 C318 145 334 160 354 160 C374 160 390 145 390 123 C390 104 372 82 354 60Z"/>
    <path d="M430 98 C421 123 410 139 410 156 C410 176 425 190 444 190 C463 190 478 176 478 156 C478 139 462 119 444 98Z"/>
    <path d="M548 62 C538 90 526 107 526 126 C526 149 542 164 563 164 C584 164 600 149 600 126 C600 107 581 84 563 62Z"/>
  </g>
  <text x="70" y="82" font-family="Poppins, Arial, sans-serif" font-size="50" font-weight="800" fill="#022c22">Climate Resilience</text>
  <text x="74" y="130" font-family="Inter, Arial, sans-serif" font-size="24" fill="#065f46">How coconut landscapes support people, coasts, and future farms</text>
</svg>
