<svg xmlns="http://www.w3.org/2000/svg" width="1200" height="630" viewBox="0 0 1200 630" role="img" aria-labelledby="title desc">
  <title id="title">Coconut Value Chain in Africa</title>
  <desc id="desc">Illustration of farmers, coconut trees, processing, logistics, and global trade routes.</desc>
  <defs>
    <linearGradient id="sky" x1="0" x2="1" y1="0" y2="1">
      <stop offset="0" stop-color="#d1fae5"/>
      <stop offset="1" stop-color="#fef3c7"/>
    </linearGradient>
    <linearGradient id="forest" x1="0" x2="1">
      <stop offset="0" stop-color="#022c22"/>
      <stop offset="1" stop-color="#047857"/>
    </linearGradient>
  </defs>
  <rect width="1200" height="630" fill="url(#sky)"/>
  <path d="M0 475 C190 405 330 500 520 430 C705 362 865 470 1200 382 L1200 630 L0 630 Z" fill="#064e3b"/>
  <path d="M0 522 C205 460 380 550 590 492 C810 430 985 532 1200 470 L1200 630 L0 630 Z" fill="#022c22" opacity=".85"/>
  <g transform="translate(95 175)">
    <path d="M110 315 C120 220 115 145 90 65" stroke="#7c2d12" stroke-width="20" stroke-linecap="round"/>
    <path d="M83 80 C30 38 20 12 6 -42 C63 -24 91 5 102 67Z" fill="#16a34a"/>
    <path d="M101 65 C123 4 154 -24 217 -44 C203 20 166 56 111 82Z" fill="#22c55e"/>
    <path d="M98 74 C42 93 6 128 -28 183 C40 181 87 151 115 92Z" fill="#15803d"/>
    <path d="M109 82 C166 89 216 116 263 168 C188 179 135 148 111 101Z" fill="#16a34a"/>
    <circle cx="96" cy="86" r="18" fill="#92400e"/>
    <circle cx="122" cy="90" r="17" fill="#78350f"/>
    <circle cx="109" cy="113" r="16" fill="#a16207"/>
  </g>
  <g transform="translate(450 172)">
    <rect x="0" y="170" width="270" height="155" rx="22" fill="#fff7ed"/>
    <rect x="24" y="110" width="84" height="110" rx="14" fill="#f59e0b"/>
    <rect x="128" y="70" width="118" height="150" rx="16" fill="#10b981"/>
    <circle cx="66" cy="68" r="38" fill="#78350f"/>
    <circle cx="66" cy="68" r="20" fill="#fef3c7"/>
    <path d="M23 260 H248" stroke="#064e3b" stroke-width="13" stroke-linecap="round"/>
    <path d="M152 112 H224 M152 148 H224 M152 184 H224" stroke="#ecfdf5" stroke-width="10" stroke-linecap="round"/>
  </g>
  <g transform="translate(806 130)">
    <circle cx="150" cy="150" r="118" fill="#ecfdf5"/>
    <path d="M150 33 C215 55 263 95 268 150 C262 206 214 247 150 267 C86 247 38 206 32 150 C37 95 85 55 150 33Z" fill="#bbf7d0"/>
    <path d="M32 150 H268 M150 33 C116 88 111 208 150 267 M150 33 C184 88 189 208 150 267" stroke="#047857" stroke-width="8" fill="none"/>
    <path d="M68 96 C118 122 177 122 232 96 M68 204 C118 178 177 178 232 204" stroke="#047857" stroke-width="8" fill="none"/>
    <path d="M-22 320 C86 253 225 251 345 318" stroke="#f59e0b" stroke-width="13" stroke-linecap="round" fill="none"/>
  </g>
  <text x="72" y="82" font-family="Poppins, Arial, sans-serif" font-size="52" font-weight="800" fill="#022c22">Coconut Value Chain</text>
  <text x="76" y="130" font-family="Inter, Arial, sans-serif" font-size="24" fill="#065f46">From Nigerian farms to international markets</text>
</svg>
